<svg width="24" height="24" viewBox="0 0 24 24" fill="none" xmlns="http://www.w3.org/2000/svg">
<g clip-path="url(#clip0_20_2)">
<path d="M0.38 0C0.339719 0.000637023 0.300101 0.0103468 0.26409 0.0284073C0.22808 0.0464678 0.196605 0.0724142 0.172005 0.104317C0.147405 0.13622 0.130314 0.173258 0.122003 0.212677C0.113692 0.252096 0.114375 0.292881 0.124 0.332L3.018 12.048C3.0203 12.0616 3.02364 12.0749 3.028 12.088L5.918 23.796C5.9293 23.8418 5.95248 23.8838 5.98522 23.9178C6.01795 23.9518 6.05907 23.9765 6.10443 23.9895C6.14978 24.0025 6.19776 24.0032 6.24351 23.9917C6.28926 23.9803 6.33117 23.9569 6.365 23.924L23.802 7.15C23.8357 7.11733 23.8603 7.07637 23.8732 7.03122C23.8862 6.98606 23.887 6.93831 23.8756 6.89273C23.8643 6.84716 23.8412 6.80536 23.8086 6.77154C23.776 6.73771 23.7351 6.71304 23.69 6.7L17.906 5.033C17.8684 5.01158 17.8262 4.99957 17.783 4.998L6.38 1.715C6.33676 1.68828 6.28682 1.67441 6.236 1.675L0.456 0.01C0.431277 0.00304217 0.405682 -0.000325605 0.38 0ZM0.754 0.654L5.71 2.08L1.99 5.664L0.754 0.654ZM6.61 2.34L11.474 3.74L7.824 7.255L6.61 2.34ZM6.088 2.46L7.305 7.386L2.428 5.986L6.088 2.46ZM12.368 3.998L17.246 5.402L13.584 8.932L12.368 3.998ZM11.848 4.128L13.056 9.028L8.203 7.636L11.848 4.128ZM18.148 5.662L23.095 7.086L19.38 10.66L18.148 5.662ZM17.624 5.782L18.839 10.708L13.963 9.31L17.624 5.782ZM2.192 6.478L7.156 7.902L3.43 11.488L2.192 6.478ZM8.047 8.15L12.924 9.55L9.264 13.077L8.047 8.15ZM7.529 8.287L8.765 13.304L3.802 11.872L7.529 8.287ZM13.803 9.822L18.768 11.247L15.038 14.833L13.803 9.822ZM13.283 9.949L14.518 14.961L9.56 13.531L13.283 9.949ZM3.653 12.387L8.526 13.793L4.87 17.316L3.653 12.387ZM9.507 14.074L14.37 15.477L10.722 18.987L9.507 14.074ZM8.967 14.114L10.181 19.041L5.306 17.641L8.967 14.114ZM5.071 18.134L10.108 19.576L6.326 23.214L5.071 18.134Z" fill="white"/>
</g>
<defs>
<clipPath id="clip0_20_2">
<rect width="24" height="24" fill="white"/>
</clipPath>
</defs>
</svg>
