<svg width="1000" height="1000" viewBox="0 0 1000 1000" fill="none" xmlns="http://www.w3.org/2000/svg">
<rect width="1000" height="1000" rx="10" fill="black"/>
<g filter="url(#filter0_d_30_4)">
<path fill-rule="evenodd" clip-rule="evenodd" d="M354.488 854.311C354.597 856.594 356.49 858.403 358.776 858.403H794.238C796.749 858.403 798.722 856.184 798.529 853.681C769.116 472.368 702.598 343.484 532.9 284.894C531.29 284.338 530.121 282.854 529.946 281.16C523.431 218.039 497.922 195.178 445.33 149.625C442.32 147.018 437.662 149.514 438.205 153.458L444.834 201.609C444.834 226.002 441.371 247.296 438.948 259.21C438.183 262.97 433.349 263.653 431.359 260.372C410.964 226.737 391.58 205.756 354.557 179.179C351.146 176.73 346.607 180.199 347.894 184.196C362.613 229.939 361.11 262.102 355.424 312.891C355.248 314.463 354.21 315.824 352.759 316.456C336.508 323.537 331.608 331.412 309.036 347.586C308.449 348.007 307.96 348.58 307.644 349.229C296.578 371.919 288.351 387.032 284.053 420.526C284.004 420.912 283.902 421.298 283.752 421.657L269.911 454.791C269.802 455.053 269.667 455.303 269.509 455.538L240.715 498.306C240.52 498.595 240.361 498.906 240.242 499.233L202.344 602.821C201.881 604.086 202.036 605.494 202.762 606.628L246.12 674.349C246.62 675.131 247.37 675.734 248.238 676.063C277.309 687.115 292.625 695.277 315.88 683.54C316.17 683.394 316.447 683.21 316.695 683.002L343.182 660.719C343.387 660.546 343.576 660.355 343.746 660.147L368.503 629.841L393.076 606.087C393.909 605.282 395.046 604.847 396.204 604.872C442.734 605.87 470.054 596.987 493.692 567.737C495.796 565.133 499.924 565.658 500.618 568.932C506.588 597.084 478.648 628.846 418.825 683.047C418.631 683.223 418.444 683.426 418.284 683.635C365.707 752.494 351.235 786.505 354.488 854.311ZM264.142 590.364C263.858 591.839 264.399 593.355 265.531 594.342L279.271 606.328C281.545 608.312 285.102 607.401 286.208 604.594C294.559 583.4 302.323 571.539 315.037 559.131C317.995 556.245 315.833 551.12 311.727 551.588C282.011 554.975 269.289 563.713 264.142 590.364ZM347.791 399.119C347.508 399.68 347.372 400.31 347.372 400.938V412.432C347.372 413.822 348.034 415.141 349.204 415.892C358.322 421.748 367.655 422.566 386.252 421.238C387.316 421.162 388.316 420.684 389.062 419.921C398.905 409.854 406.229 406.007 419.546 404.961C421.86 404.779 423.703 402.889 423.703 400.568V399.051C423.703 397.066 422.332 395.333 420.403 394.865C374.534 383.736 355.864 383.148 347.791 399.119ZM585.446 372.745C583.754 371.573 581.417 371.914 580.145 373.533V373.533C578.783 375.267 579.147 377.801 580.898 379.142C680.012 455.055 690.33 563.891 681.763 791.766C681.671 794.21 683.625 796.303 686.072 796.303H735.144C737.659 796.303 739.636 794.102 739.437 791.594C721.447 565.43 700.488 452.431 585.446 372.745Z" fill="url(#paint0_linear_30_4)"/>
</g>
<defs>
<filter id="filter0_d_30_4" x="102.081" y="48.5549" width="796.461" height="909.848" filterUnits="userSpaceOnUse" color-interpolation-filters="sRGB">
<feFlood flood-opacity="0" result="BackgroundImageFix"/>
<feColorMatrix in="SourceAlpha" type="matrix" values="0 0 0 0 0 0 0 0 0 0 0 0 0 0 0 0 0 0 127 0" result="hardAlpha"/>
<feOffset/>
<feGaussianBlur stdDeviation="50"/>
<feComposite in2="hardAlpha" operator="out"/>
<feColorMatrix type="matrix" values="0 0 0 0 1 0 0 0 0 1 0 0 0 0 1 0 0 0 0.5 0"/>
<feBlend mode="normal" in2="BackgroundImageFix" result="effect1_dropShadow_30_4"/>
<feBlend mode="normal" in="SourceGraphic" in2="effect1_dropShadow_30_4" result="shape"/>
</filter>
<linearGradient id="paint0_linear_30_4" x1="798.891" y1="500.25" x2="201.609" y2="500.25" gradientUnits="userSpaceOnUse">
<stop stop-color="#1E1E1E"/>
<stop offset="0.675" stop-color="white"/>
<stop offset="1" stop-color="white"/>
</linearGradient>
</defs>
</svg>
