<svg width="1000" height="1000" viewBox="0 0 1000 1000" fill="none" xmlns="http://www.w3.org/2000/svg">
<g clip-path="url(#clip0_9_2)">
<path d="M306.35 875C306.35 841.619 310.438 810.962 318.613 783.031C326.788 755.1 335.984 733.981 346.203 719.675C351.653 712.181 359.828 702.303 370.728 690.041C382.309 677.097 397.297 661.428 415.691 643.034C437.491 621.234 452.819 603.522 461.675 589.897C471.213 575.591 475.981 561.284 475.981 546.978C475.981 540.166 475.3 534.034 473.938 528.584H469.85C469.169 534.034 464.059 541.869 454.522 552.087C445.666 562.306 434.425 569.459 420.8 573.547C413.988 575.591 404.791 577.634 393.209 579.678C382.309 581.041 369.025 582.403 353.356 583.766C345.181 589.216 336.325 596.709 326.788 606.247C317.931 615.784 308.394 627.366 298.175 640.991C277.738 667.559 259.344 680.844 242.994 680.844C225.281 680.844 210.634 678.8 199.053 674.712C188.153 670.625 179.297 663.131 172.484 652.231L126.5 579.678C131.269 570.822 136.038 559.581 140.806 545.956C146.256 532.331 152.047 517.003 158.178 499.972C164.309 482.259 170.441 467.272 176.572 455.009C183.384 442.066 189.516 432.187 194.966 425.375C206.547 410.387 216.425 388.247 224.6 358.953C230.05 339.197 235.159 323.187 239.928 310.925C245.378 297.981 252.872 286.741 262.409 277.203C271.947 267.666 286.253 257.787 305.328 247.569C311.459 227.812 314.525 207.034 314.525 185.234C314.525 174.334 313.844 163.775 312.481 153.556C311.119 142.656 309.075 131.756 306.35 120.856H330.875C366.981 134.481 388.781 158.325 396.275 192.387H402.406C405.131 186.256 407.175 176.037 408.538 161.731C409.9 147.425 410.581 135.503 410.581 125.966C410.581 119.834 410.241 113.703 409.559 107.572C409.559 101.441 409.219 95.9906 408.538 91.2219H444.303C464.741 102.122 481.091 118.812 493.353 141.294C505.616 163.775 511.747 187.959 511.747 213.847C553.984 225.428 593.838 246.887 631.306 278.225C669.456 309.562 702.497 349.416 730.428 397.784C759.041 446.153 779.819 501.675 792.763 564.35C802.3 611.356 809.453 660.066 814.222 710.478C818.991 760.209 821.375 811.984 821.375 865.803V875H306.35ZM684.444 806.534H751.888C751.888 753.397 748.822 701.622 742.691 651.209C737.241 600.797 728.384 554.472 716.122 512.234C703.859 469.997 687.509 434.572 667.072 405.959C652.084 384.159 636.756 365.084 621.088 348.734C605.419 332.384 589.409 319.1 573.059 308.881L563.862 315.012C592.475 338.856 615.978 365.425 634.372 394.719C653.447 423.331 667.753 459.437 677.291 503.037C686.828 546.637 691.597 603.181 691.597 672.669C691.597 697.875 690.916 721.719 689.553 744.2C688.872 766.681 687.169 787.459 684.444 806.534ZM328.831 370.194C337.688 370.194 346.203 366.787 354.378 359.975C362.553 353.162 371.069 349.756 379.925 349.756L388.1 350.778V341.581L359.488 333.406C355.4 332.044 350.972 331.022 346.203 330.341C342.116 329.659 338.028 329.319 333.941 329.319C323.041 329.319 313.844 331.362 306.35 335.45C299.538 339.537 296.131 345.328 296.131 352.822V359.975L297.153 364.062C302.603 368.15 313.163 370.194 328.831 370.194ZM226.644 589.897C228.688 580.359 233.456 569.459 240.95 557.197C248.444 544.253 259.003 533.012 272.628 523.475L268.541 518.366C249.466 519.047 233.797 524.156 221.534 533.694C209.953 542.55 202.459 553.791 199.053 567.416C201.778 572.866 205.866 577.975 211.316 582.744C217.447 586.831 222.556 589.216 226.644 589.897Z" fill="white"/>
</g>
<defs>
<clipPath id="clip0_9_2">
<rect width="1000" height="1000" fill="white"/>
</clipPath>
</defs>
</svg>
